<svg id="visual" viewBox="0 0 900 600" width="900" height="600" xmlns="http://www.w3.org/2000/svg" xmlns:xlink="http://www.w3.org/1999/xlink" version="1.1"><rect x="0" y="0" width="900" height="600" fill="#fff"></rect><path d="M0 436L150 449L300 442L450 433L600 452L750 436L900 446L900 601L750 601L600 601L450 601L300 601L150 601L0 601Z" fill="#f77f00"></path><path d="M0 505L150 496L300 489L450 503L600 495L750 493L900 505L900 601L750 601L600 601L450 601L300 601L150 601L0 601Z" fill="#e9571a"></path><path d="M0 546L150 540L300 548L450 536L600 537L750 546L900 531L900 601L750 601L600 601L450 601L300 601L150 601L0 601Z" fill="#d62828"></path></svg>