<?xml version="1.0" standalone="no"?>
<!DOCTYPE svg PUBLIC "-//W3C//DTD SVG 20010904//EN"
 "http://www.w3.org/TR/2001/REC-SVG-20010904/DTD/svg10.dtd">
<svg version="1.0" xmlns="http://www.w3.org/2000/svg"
 width="300.000000pt" height="205.000000pt" viewBox="0 0 300.000000 205.000000"
 preserveAspectRatio="xMidYMid meet">
<metadata>
Created by potrace 1.10, written by Peter Selinger 2001-2011
</metadata>
<g transform="translate(0.000000,205.000000) scale(0.100000,-0.100000)"
fill="#000000" stroke="none">
<path d="M2723 1860 c-51 -39 -93 -77 -93 -85 0 -25 59 -83 97 -96 27 -9 45
-9 76 1 39 11 40 11 78 -26 32 -31 41 -35 54 -24 22 19 19 32 -20 70 -24 24
-32 37 -26 49 14 27 22 73 13 67 -5 -3 -7 5 -5 18 5 24 -48 96 -71 96 -6 0
-53 -32 -103 -70z m127 38 c11 -13 23 -32 25 -43 13 -66 12 -95 -1 -112 -14
-17 -14 -16 -4 5 7 13 9 26 7 29 -3 2 -8 -5 -12 -17 -10 -32 -63 -60 -113 -60
-37 0 -50 6 -78 34 -19 19 -34 38 -33 43 0 8 169 141 181 142 4 1 17 -9 28
-21z m63 -216 c23 -24 26 -31 13 -41 -11 -9 -20 -4 -46 29 -19 24 -37 37 -43
33 -7 -4 -6 1 2 10 16 20 33 13 74 -31z"/>
<path d="M2787 1863 c-4 -3 -7 -19 -7 -34 0 -24 15 -39 41 -39 15 0 40 46 33
64 -6 16 -54 23 -67 9z m56 -17 c8 -21 -17 -50 -37 -43 -10 4 -14 12 -11 18 4
6 13 8 20 5 15 -6 27 3 19 15 -3 5 -14 4 -25 -1 -11 -7 -19 -7 -19 -1 0 8 14
15 41 20 4 0 9 -5 12 -13z"/>
<path d="M2700 1785 c-20 -24 -3 -55 30 -55 34 0 44 12 36 46 -7 28 -46 33
-66 9z m55 -20 c0 -23 -34 -33 -46 -14 -10 17 9 41 30 37 9 -2 16 -12 16 -23z"/>
<path d="M173 1896 c4 -9 2 -16 -3 -16 -6 0 -10 5 -10 10 0 6 -7 10 -15 10 -9
0 -15 -9 -15 -22 0 -17 -3 -19 -9 -9 -11 17 -34 4 -27 -15 3 -7 0 -16 -6 -20
-7 -4 -8 -3 -4 4 4 7 3 12 -2 12 -11 0 -23 -40 -16 -52 3 -4 12 -8 20 -8 8 0
12 5 9 11 -10 15 45 58 83 65 36 7 42 36 8 42 -14 3 -17 0 -13 -12z"/>
<path d="M148 1840 c-59 -46 -58 -118 3 -154 64 -38 139 8 139 84 0 75 -84
116 -142 70z m106 -11 c17 -13 26 -30 25 -47 0 -25 -1 -25 -12 7 -7 19 -19 37
-27 39 -13 4 -12 2 1 -14 19 -21 30 -82 17 -90 -5 -3 -6 -9 -3 -13 2 -5 -6 -8
-18 -8 -12 0 -33 -1 -47 -2 -23 -2 -24 -3 -5 -11 15 -7 16 -9 4 -9 -9 -1 -28
8 -43 20 -21 16 -24 24 -16 39 6 10 10 29 9 42 -1 18 -3 16 -10 -11 -6 -18
-12 -31 -14 -29 -3 2 0 21 6 41 18 65 81 87 133 46z"/>
<path d="M159 1824 c-8 -9 -12 -27 -11 -40 2 -13 -1 -32 -7 -42 -14 -25 6 -44
37 -35 27 7 24 28 -4 28 -20 1 -21 5 -9 43 4 14 2 22 -6 22 -25 0 13 29 44 33
l32 4 -31 1 c-19 1 -37 -5 -45 -14z"/>
<path d="M180 1769 c0 -14 5 -19 17 -17 26 5 29 38 4 38 -15 0 -21 -6 -21 -21z"/>
<path d="M431 1640 c-82 -38 -181 -139 -168 -173 5 -14 143 -73 164 -71 7 1
11 -2 8 -6 -5 -9 93 -56 101 -47 3 3 -4 60 -15 126 -12 67 -21 127 -20 133 4
32 -2 58 -13 58 -7 0 -33 -9 -57 -20z m59 -4 c0 -7 -25 -26 -55 -40 -49 -24
-135 -105 -135 -127 0 -5 -7 -9 -15 -9 -19 0 -19 4 -1 38 23 44 87 99 146 126
65 30 60 29 60 12z m2 -65 c3 -22 0 -31 -14 -34 -11 -3 -18 -14 -17 -29 l0
-23 9 23 c15 35 27 26 37 -28 9 -46 9 -50 -10 -50 -15 0 -18 5 -14 26 3 16 1
22 -5 16 -16 -16 -4 -47 20 -50 12 -2 22 -9 22 -15 0 -7 3 -23 7 -35 l6 -24
-42 21 c-22 12 -41 26 -41 31 0 6 -11 10 -25 10 -27 0 -115 39 -115 52 0 13
64 80 104 110 51 37 73 36 78 -1z"/>
<path d="M363 1464 c-8 -22 18 -37 36 -20 7 8 10 19 7 25 -10 16 -36 13 -43
-5z"/>
<path d="M2830 1427 c-13 -7 -35 -28 -48 -47 -15 -23 -40 -41 -77 -56 -66 -27
-134 -73 -202 -137 -54 -51 -64 -73 -38 -83 10 -4 43 20 93 67 112 105 211
152 242 114 20 -24 74 -18 109 11 73 62 5 175 -79 131z m92 -30 c16 -24 8 -68
-17 -92 -27 -28 -71 -33 -101 -10 -10 8 -30 15 -43 15 -36 0 -142 -63 -205
-123 -31 -29 -56 -50 -56 -47 0 3 -5 -3 -11 -12 -5 -10 -14 -18 -19 -18 -6 0
-10 8 -10 18 0 14 2 15 10 2 7 -10 10 -11 11 -2 1 6 2 16 3 22 4 32 225 180
270 180 8 0 25 18 36 39 22 45 61 63 100 49 13 -5 28 -15 32 -21z"/>
<path d="M2825 1381 c-15 -31 -13 -51 5 -51 11 0 44 60 36 67 -2 3 -12 -9 -21
-26 -8 -17 -18 -31 -21 -31 -2 0 3 14 11 31 9 17 14 33 11 36 -2 3 -12 -9 -21
-26z"/>
<path d="M2889 1353 c-7 -16 -15 -31 -17 -35 -2 -5 0 -8 5 -8 5 0 17 16 26 35
20 41 7 48 -14 8z"/>
<path d="M272 1367 c-6 -7 -52 -33 -102 -56 -67 -32 -90 -48 -90 -62 0 -28 26
-34 58 -13 43 28 103 62 150 84 31 14 43 25 40 37 -4 22 -41 29 -56 10z m44
-15 c1 -7 0 -8 -3 -2 -7 14 -23 13 -23 -3 0 -7 -8 -17 -19 -22 -10 -6 -42 -23
-71 -38 -60 -33 -91 -41 -84 -24 2 7 40 30 84 50 44 21 80 43 80 48 0 15 33 7
36 -9z"/>
<path d="M2776 1217 c-8 -12 -27 -48 -42 -80 -27 -55 -30 -57 -59 -50 -16 4
-43 7 -60 7 -28 1 -30 -2 -31 -34 0 -20 -24 -84 -57 -154 -32 -66 -56 -121
-54 -123 2 -2 75 22 163 53 87 31 170 58 184 59 14 1 31 3 38 4 6 0 12 12 12
25 0 24 -67 104 -105 124 -19 10 -19 13 18 86 20 42 37 80 37 85 0 20 -31 19
-44 -2z m34 -4 c-2 -22 -78 -155 -84 -145 -9 15 54 152 70 152 8 0 14 -3 14
-7z m-106 -150 c53 -17 156 -106 156 -135 0 -29 -29 -29 -44 0 -26 50 -86 90
-178 118 -46 14 -56 23 -42 37 8 8 38 2 108 -20z m6 -56 c43 -21 95 -71 95
-91 0 -8 -283 -115 -307 -116 -3 0 -1 14 5 30 12 31 21 37 32 20 9 -15 35 0
35 20 0 10 -8 20 -18 22 -17 3 -15 10 16 76 34 72 36 74 66 68 17 -3 51 -16
76 -29z"/>
<path d="M2595 976 c-29 -44 18 -96 66 -73 27 14 38 60 18 83 -19 23 -66 17
-84 -10z m79 -8 c16 -26 -4 -53 -40 -53 -23 0 -30 5 -32 23 -2 13 -1 30 2 38
8 20 56 14 70 -8z"/>
<path d="M2704 949 c-8 -14 21 -43 35 -35 19 12 13 46 -8 46 -11 0 -23 -5 -27
-11z"/>
<path d="M165 1089 c-52 -48 -108 -155 -103 -197 3 -22 9 -28 43 -34 22 -3 94
-22 160 -41 102 -30 121 -38 125 -58 7 -29 30 -37 30 -10 0 24 3 25 48 11 l34
-9 -16 24 c-9 14 -64 86 -121 161 -58 75 -105 142 -105 148 0 13 -31 46 -44
46 -3 0 -27 -19 -51 -41z m75 7 c0 -6 -16 -27 -35 -46 -19 -19 -35 -42 -35
-52 0 -9 -8 -22 -18 -27 -11 -6 -27 -31 -36 -56 -10 -25 -24 -45 -32 -45 -42
0 20 144 90 208 44 40 66 47 66 18z m120 -172 c61 -80 109 -148 107 -150 -2
-3 -16 0 -31 5 -24 10 -26 8 -27 -17 l-2 -27 -4 27 c-4 24 -12 30 -71 47 -37
10 -102 29 -144 42 -43 12 -78 24 -78 26 0 12 41 81 54 92 9 8 16 19 16 26 0
13 50 73 62 74 4 1 57 -65 118 -145z"/>
<path d="M250 995 c-16 -19 -5 -47 17 -43 11 2 18 12 18 27 0 29 -17 37 -35
16z"/>
<path d="M202 948 c-7 -7 -12 -20 -12 -29 0 -19 35 -49 57 -49 19 0 43 30 42
53 -1 21 -1 21 -8 -2 -10 -38 -36 -49 -60 -27 -26 23 -27 42 -3 55 9 6 12 11
7 11 -6 0 -16 -5 -23 -12z"/>
<path d="M304 875 c-9 -23 3 -45 24 -45 29 0 48 26 32 45 -7 8 -21 15 -32 15
-10 0 -21 -7 -24 -15z m46 -15 c0 -21 -24 -28 -35 -10 -8 14 3 30 21 30 8 0
14 -9 14 -20z"/>
<path d="M2823 695 c-17 -7 -36 -23 -43 -34 -6 -13 -21 -21 -35 -21 -14 0 -25
-5 -25 -10 0 -6 17 -10 38 -9 20 0 49 -2 64 -6 19 -5 38 0 72 20 25 15 46 31
46 35 0 4 -18 10 -40 12 -22 2 -40 0 -40 -4 0 -4 15 -8 33 -10 l32 -3 -42 -23
c-50 -26 -66 -27 -83 -6 -11 12 -10 18 6 34 11 11 32 21 47 22 15 1 27 6 27
10 0 12 -21 9 -57 -7z"/>
<path d="M74 668 c-16 -12 -31 -23 -33 -25 -2 -1 2 -16 9 -32 13 -32 31 -44
55 -35 10 4 22 -11 40 -52 24 -54 24 -58 8 -68 -10 -5 -36 -26 -57 -47 -35
-32 -39 -39 -27 -53 8 -9 20 -15 27 -12 9 4 11 -8 7 -47 -4 -43 -1 -57 16 -79
50 -63 147 -54 177 17 8 20 12 41 8 48 -4 7 17 -12 46 -40 36 -36 62 -53 79
-53 24 0 22 3 -26 53 -28 28 -78 85 -111 125 l-60 73 23 24 c12 14 29 25 36
25 8 0 21 4 29 10 12 7 12 12 0 34 -17 32 -35 33 -55 3 -20 -32 -60 -50 -73
-34 -27 34 -43 80 -37 108 7 33 -16 79 -39 79 -7 0 -26 -10 -42 -22z m66 -8
c6 -11 8 -36 4 -55 -5 -28 -9 -33 -20 -24 -7 6 -18 8 -24 4 -21 -13 -40 14
-29 43 9 25 8 26 -6 8 -8 -11 -15 -15 -15 -9 0 13 50 52 67 53 7 0 17 -9 23
-20z m163 -137 c-5 -12 -3 -14 7 -8 9 5 11 4 6 -3 -4 -7 -16 -12 -26 -12 -11
0 -29 -10 -42 -23 -13 -13 -54 -47 -92 -76 -48 -37 -71 -50 -79 -42 -15 15 7
37 93 93 77 49 85 56 108 83 16 19 34 11 25 -12z m71 -260 c37 -39 54 -63 44
-63 -18 0 -117 103 -168 174 -18 25 -35 44 -38 41 -2 -2 10 -22 28 -45 l32
-40 -26 0 c-32 0 -42 -17 -22 -39 22 -24 20 -38 -6 -47 -32 -10 -70 36 -62 75
5 26 3 30 -20 33 -24 3 -22 6 31 44 l56 41 45 -56 c24 -31 72 -84 106 -118z
m-230 48 c-5 -23 -1 -35 19 -55 32 -31 58 -33 83 -5 19 21 18 21 -5 40 -21 17
-21 20 -6 26 27 10 50 -10 53 -47 8 -78 -99 -112 -152 -49 -35 41 -35 119 0
119 10 0 12 -8 8 -29z"/>
<path d="M92 654 c-5 -9 -7 -26 -4 -37 4 -15 2 -18 -8 -12 -9 6 -11 4 -5 -5 6
-10 11 -10 20 3 7 9 14 14 17 12 10 -10 28 23 22 39 -8 21 -30 21 -42 0z"/>
<path d="M2610 643 c0 -44 -93 -123 -145 -123 -9 0 -14 -4 -11 -9 12 -18 -141
20 -182 46 -40 25 -34 9 18 -47 l49 -54 71 -4 c60 -4 78 -1 123 22 82 40 90
52 109 171 2 12 -4 21 -14 23 -14 3 -18 -3 -18 -25z m-28 -124 c-87 -77 -237
-80 -285 -5 l-18 27 35 -15 c19 -8 59 -19 88 -25 74 -16 103 -4 182 74 l31 30
3 -25 c3 -19 -6 -34 -36 -61z"/>
<path d="M2810 480 c-11 -7 -6 -10 20 -10 43 -1 68 -19 80 -57 l8 -28 1 26 c2
45 -73 92 -109 69z"/>
<path d="M2757 413 c-13 -27 -38 -70 -55 -97 -36 -56 -39 -77 -16 -100 30 -30
55 -18 140 70 46 47 84 87 84 89 0 2 -11 6 -24 9 -14 3 -41 22 -62 41 -20 19
-38 35 -40 35 -2 0 -14 -21 -27 -47z m126 -56 c-6 -9 -95 55 -102 74 -2 6 21
-5 52 -27 30 -21 53 -42 50 -47z m-42 -23 l-16 -22 -36 26 c-34 25 -36 28 -22
49 l14 22 38 -27 c36 -26 37 -28 22 -48z m-41 -18 c9 -11 9 -16 1 -16 -19 0
-61 31 -55 41 6 11 35 -3 54 -25z m-28 -72 c-31 -39 -66 -44 -83 -13 -9 17 -6
29 12 64 l23 43 37 -30 38 -30 -27 -34z"/>
</g>
</svg>
