<?xml version="1.0" standalone="no"?>
<!DOCTYPE svg PUBLIC "-//W3C//DTD SVG 20010904//EN"
 "http://www.w3.org/TR/2001/REC-SVG-20010904/DTD/svg10.dtd">
<svg version="1.0" xmlns="http://www.w3.org/2000/svg"
 width="300.000000pt" height="205.000000pt" viewBox="0 0 300.000000 205.000000"
 preserveAspectRatio="xMidYMid meet">
<metadata>
Created by potrace 1.10, written by Peter Selinger 2001-2011
</metadata>
<g transform="translate(0.000000,205.000000) scale(0.100000,-0.100000)"
fill="#000000" stroke="none">
<path d="M211 1939 c-52 -16 -125 -95 -140 -154 -12 -49 -7 -116 11 -145 7
-12 8 -11 4 5 -15 66 -17 91 -5 137 33 138 212 204 329 123 38 -27 70 -69 70
-95 0 -20 -20 -10 -34 18 -8 16 -33 41 -55 55 -82 55 -224 23 -262 -58 -6 -11
0 -7 12 8 53 69 175 90 248 42 31 -21 61 -60 61 -80 0 -3 -22 -16 -50 -30 -27
-14 -50 -28 -50 -30 0 -8 138 63 144 74 11 17 -58 95 -104 119 -48 24 -118 28
-179 11z"/>
<path d="M2851 1930 c-26 -16 -4 -40 34 -38 19 2 35 7 35 12 0 4 -9 6 -20 3
-13 -3 -20 0 -20 8 0 19 -13 25 -29 15z"/>
<path d="M2700 1892 c0 -6 8 -17 19 -24 10 -7 19 -16 20 -20 0 -5 3 -7 4 -5 2
1 11 -4 20 -12 23 -18 22 -37 0 -20 -16 13 -17 12 -4 -3 7 -10 17 -16 21 -13
4 2 17 -7 30 -20 20 -21 22 -28 12 -50 -6 -14 -9 -32 -5 -41 5 -14 3 -15 -12
-7 -10 6 -26 8 -36 6 -19 -5 -49 12 -49 28 0 5 6 6 14 3 32 -12 26 21 -14 78
-55 79 -45 86 15 9 46 -61 70 -77 63 -43 -2 9 -9 16 -16 15 -6 -2 -31 22 -54
53 -23 31 -44 51 -46 45 -2 -6 -8 -9 -13 -5 -17 10 -9 -7 29 -64 56 -82 55
-81 32 -79 -11 1 -19 6 -18 12 3 11 -58 115 -67 115 -3 0 15 -41 40 -91 42
-82 48 -90 73 -89 15 1 32 2 39 1 7 -1 38 -44 69 -96 46 -77 61 -95 80 -95 37
0 30 26 -23 87 -96 110 -103 121 -91 154 9 27 6 34 -40 87 -61 70 -92 99 -92
84z m189 -301 c57 -68 77 -108 50 -99 -10 3 -68 89 -110 163 -15 26 -13 24 60
-64z"/>
<path d="M240 1855 c-15 -18 -6 -45 13 -45 8 0 20 7 27 15 10 12 10 18 0 30
-16 19 -24 19 -40 0z"/>
<path d="M330 1844 c-11 -12 -10 -18 3 -32 16 -15 18 -15 33 0 19 18 12 48 -9
48 -8 0 -20 -7 -27 -16z"/>
<path d="M150 1815 c-17 -20 -5 -45 20 -45 11 0 23 7 26 15 6 15 -11 45 -26
45 -4 0 -13 -7 -20 -15z"/>
<path d="M280 1774 c-11 -12 -11 -18 1 -30 13 -12 18 -12 34 0 16 12 17 16 6
30 -17 20 -25 20 -41 0z"/>
<path d="M194 1736 c-8 -21 13 -46 32 -39 20 8 13 47 -9 51 -9 2 -20 -4 -23
-12z"/>
<path d="M130 1725 c-16 -20 -6 -45 19 -45 23 0 32 18 19 43 -11 21 -22 22
-38 2z"/>
<path d="M115 1648 c4 -22 2 -28 -11 -28 -10 0 -14 -3 -11 -6 8 -8 94 24 103
38 3 5 -8 3 -24 -6 -40 -20 -41 -20 -53 7 -9 20 -9 20 -4 -5z"/>
<path d="M115 1511 c-3 -5 7 -11 22 -13 24 -3 28 -8 28 -33 0 -24 -5 -31 -24
-33 -13 -2 -21 0 -17 6 3 6 -3 21 -14 33 l-20 24 2 -30 c4 -37 49 -59 72 -34
24 24 28 56 11 73 -18 18 -51 21 -60 7z"/>
<path d="M302 1425 c-7 -15 -20 -25 -32 -25 -11 0 -20 -4 -20 -10 0 -16 47
-12 64 6 17 16 22 54 8 54 -5 0 -14 -11 -20 -25z"/>
<path d="M2708 1352 c-62 -81 -74 -102 -67 -120 5 -14 17 -22 31 -22 19 0 20
-2 8 -11 -11 -8 -9 -9 10 -3 39 10 60 25 25 17 -26 -5 -28 -4 -17 9 16 20 6
46 -19 50 -18 3 -13 12 32 71 28 37 55 67 60 67 12 0 77 -80 91 -112 14 -30
29 -35 46 -15 18 21 -84 165 -119 167 -3 0 -40 -44 -81 -98z m118 56 c43 -46
74 -93 74 -112 0 -24 -15 -19 -28 9 -7 14 -32 47 -57 74 -39 42 -47 61 -25 61
3 0 20 -15 36 -32z m-131 -169 c0 -24 -40 -17 -41 8 -1 18 2 20 20 14 12 -5
21 -15 21 -22z"/>
<path d="M93 1333 c-7 -2 -13 -20 -13 -39 0 -27 4 -34 20 -34 13 0 20 6 19 18
0 10 -3 12 -6 5 -9 -24 -24 -13 -21 15 3 26 6 27 53 26 28 -1 63 -5 79 -9 20
-6 31 -4 37 6 6 10 9 6 9 -15 l0 -29 -62 6 c-46 3 -56 2 -38 -4 13 -6 42 -9
65 -7 37 3 40 5 43 36 2 23 -1 32 -12 32 -8 0 -16 -6 -19 -12 -3 -10 -11 -10
-39 0 -34 12 -92 15 -115 5z"/>
<path d="M2778 1318 c19 -19 14 -38 -9 -38 -16 0 -20 5 -16 20 6 22 -8 28 -16
8 -13 -38 43 -66 62 -30 10 20 -3 52 -21 52 -9 0 -9 -3 0 -12z"/>
<path d="M2795 1244 c-27 -13 -39 -21 -25 -18 29 7 100 43 85 43 -5 0 -32 -12
-60 -25z"/>
<path d="M2591 1198 c-17 -23 -29 -43 -28 -45 2 -2 25 4 51 13 26 9 45 18 43
20 -2 3 -16 0 -31 -6 -45 -17 -48 -12 -20 25 14 19 24 35 21 35 -3 0 -19 -19
-36 -42z"/>
<path d="M202 1193 c-36 -17 -87 -72 -77 -82 4 -3 13 3 21 14 32 45 57 65 97
73 28 7 34 10 17 11 -14 0 -40 -7 -58 -16z"/>
<path d="M270 1190 l-25 -8 25 -2 c14 -1 19 -4 12 -7 -19 -8 34 -45 59 -41 12
2 29 14 37 27 16 23 15 23 -6 17 -15 -5 -32 -2 -47 8 -13 9 -26 16 -27 15 -2
-1 -14 -5 -28 -9z m62 -19 c39 -19 40 -31 3 -31 -14 0 -26 9 -33 25 -14 30
-15 30 30 6z"/>
<path d="M2862 1145 c-19 -39 -20 -46 -7 -59 8 -8 24 -17 35 -21 24 -8 17 -29
-15 -43 -22 -10 -25 -9 -29 11 -12 54 -15 59 -11 19 3 -38 -4 -59 -51 -147
-50 -97 -65 -147 -46 -159 22 -13 57 49 91 163 16 52 32 83 53 103 19 18 37
50 49 90 22 74 22 71 9 63 -5 -3 -10 0 -10 7 0 9 -3 9 -10 -2 -8 -13 -10 -12
-10 3 0 32 -26 17 -48 -28z m58 5 c1 8 4 10 6 4 4 -10 -22 -84 -30 -84 -2 0
-2 10 1 23 5 22 5 22 -11 2 -13 -16 -15 -17 -10 -2 5 13 2 16 -11 10 -16 -5
-15 -1 5 36 24 41 24 41 37 19 8 -15 13 -18 13 -8z m-87 -196 c-9 -21 -18 -50
-20 -64 -6 -35 -43 -117 -59 -131 -29 -24 -13 33 39 139 50 102 76 139 40 56z"/>
<path d="M158 1105 c-34 -47 -54 -59 -45 -25 3 11 1 18 -4 14 -14 -9 -10 -44
5 -44 8 0 30 23 50 50 20 28 34 50 31 50 -3 0 -20 -20 -37 -45z"/>
<path d="M100 914 c0 -6 7 -17 15 -24 9 -8 13 -22 10 -39 -4 -22 -3 -21 10 8
9 18 14 41 12 50 -3 9 -5 6 -6 -9 l-1 -25 -20 25 c-11 14 -20 20 -20 14z"/>
<path d="M2920 750 c0 -5 5 -12 10 -15 15 -9 12 -35 -4 -35 -8 0 -17 5 -19 10
-3 6 -4 5 -3 -2 4 -22 41 -15 41 7 0 11 4 23 8 26 5 3 -1 9 -12 12 -12 3 -21
1 -21 -3z"/>
<path d="M202 738 c5 -15 48 -18 48 -3 0 6 -11 11 -26 13 -18 3 -25 0 -22 -10z"/>
<path d="M2857 519 c-17 -10 -47 -59 -47 -79 0 -5 6 -10 14 -10 17 0 31 -18
22 -27 -3 -3 -12 -1 -20 6 -11 9 -20 3 -47 -31 -44 -58 -58 -68 -93 -68 -17 0
-41 -8 -52 -18 -31 -24 -85 -103 -78 -113 3 -5 0 -9 -5 -9 -18 0 -12 -28 11
-50 41 -38 98 -20 161 49 30 33 37 49 37 82 0 52 54 125 113 154 71 34 88 126
23 125 -11 0 -29 -5 -39 -11z m70 -15 c11 -29 -12 -35 -37 -9 l-23 25 27 0
c15 0 29 -7 33 -16z m-30 -54 c1 -11 -2 -18 -7 -15 -4 3 -10 -1 -13 -7 -3 -10
-9 -10 -22 -2 -24 13 -27 40 -8 60 14 13 17 13 32 0 9 -8 17 -24 18 -36z m-87
-78 c-10 -15 -28 -38 -39 -52 -13 -16 -21 -40 -21 -65 0 -30 -8 -50 -31 -78
-17 -20 -34 -35 -38 -32 -5 2 -17 -3 -27 -13 -26 -23 -69 -24 -90 -1 -14 15
-14 21 -4 34 7 8 9 15 4 15 -4 0 1 7 12 16 10 8 12 13 4 9 -8 -4 -4 3 10 14
14 12 34 19 44 17 14 -4 16 -2 7 7 -9 9 -17 8 -34 -1 -12 -7 -5 3 15 22 28 27
46 36 72 36 30 0 40 7 77 54 42 54 78 70 39 18z"/>
<path d="M230 461 c-19 -4 -53 -17 -75 -28 -45 -24 -109 -86 -104 -101 2 -5
55 -55 117 -112 93 -84 115 -100 127 -90 10 8 14 28 13 54 l-1 41 -4 -41 c-4
-37 -6 -41 -26 -37 -12 3 -36 19 -54 36 -30 28 -31 31 -15 43 14 10 15 15 4
26 -11 11 -16 10 -27 -6 -13 -18 -16 -16 -57 22 l-42 41 19 22 c11 12 40 35
65 50 25 16 41 29 37 29 -13 0 -61 -32 -99 -68 -32 -31 -38 -33 -44 -18 -14
36 97 116 178 129 l37 6 4 -55 4 -54 -1 57 c-1 31 -5 57 -11 58 -5 2 -26 -1
-45 -4z"/>
<path d="M217 394 c-12 -12 -8 -42 6 -47 21 -8 39 8 35 29 -3 19 -29 30 -41
18z"/>
<path d="M142 338 c-17 -17 -15 -36 6 -47 13 -7 23 -6 30 1 17 17 15 45 -4 52
-20 8 -18 8 -32 -6z"/>
<path d="M2944 329 c-10 -13 -13 -19 -6 -15 6 4 12 2 12 -3 0 -6 -5 -11 -11
-11 -22 0 -84 -64 -151 -154 -38 -50 -68 -94 -68 -97 0 -13 28 -29 41 -24 8 3
26 23 41 43 15 20 45 62 67 92 23 30 41 60 41 67 0 6 16 33 36 58 21 28 32 51
27 56 -6 6 -17 1 -29 -12z m-37 -89 c-39 -78 -90 -142 -109 -136 -11 2 -15 0
-11 -6 4 -7 1 -8 -8 -3 -12 8 -12 6 0 -9 13 -15 12 -20 -6 -38 -19 -18 -43
-18 -43 1 0 19 187 244 197 237 1 -1 -8 -22 -20 -46z"/>
<path d="M234 305 c-4 -9 -2 -21 4 -27 15 -15 44 -1 40 19 -4 23 -36 29 -44 8z"/>
<path d="M247 216 c-8 -21 16 -39 31 -24 8 8 9 15 1 25 -15 17 -25 17 -32 -1z"/>
</g>
</svg>
