<?xml version="1.0" standalone="no"?>
<!DOCTYPE svg PUBLIC "-//W3C//DTD SVG 20010904//EN"
 "http://www.w3.org/TR/2001/REC-SVG-20010904/DTD/svg10.dtd">
<svg version="1.0" xmlns="http://www.w3.org/2000/svg"
 width="300.000000pt" height="205.000000pt" viewBox="0 0 300.000000 205.000000"
 preserveAspectRatio="xMidYMid meet">
<metadata>
Created by potrace 1.10, written by Peter Selinger 2001-2011
</metadata>
<g transform="translate(0.000000,205.000000) scale(0.100000,-0.100000)"
fill="#000000" stroke="none">
<path d="M2762 1914 c-23 -20 -39 -40 -36 -45 3 -6 11 -5 20 2 8 6 12 14 10
17 -3 2 8 15 25 29 25 22 32 23 47 12 15 -13 16 -12 3 4 -18 23 -21 22 -69
-19z"/>
<path d="M145 1899 c-89 -46 -90 -49 -49 -131 19 -38 42 -72 51 -75 19 -7 161
61 169 81 3 8 -6 37 -20 64 -22 44 -29 51 -53 49 -23 -2 -28 -8 -31 -32 l-3
-30 25 28 c28 30 38 35 30 13 -3 -8 3 -23 14 -34 11 -11 18 -23 15 -26 -4 -3
-1 -6 6 -6 8 0 6 -8 -6 -24 -10 -13 -24 -21 -30 -19 -7 3 -16 -2 -19 -11 -3
-9 -10 -13 -15 -11 -5 3 -22 -1 -39 -10 -31 -16 -50 -13 -50 7 0 6 3 8 7 5 10
-11 33 13 33 35 0 16 -3 17 -20 8 -11 -6 -20 -17 -20 -25 0 -8 -6 -12 -14 -9
-8 3 -12 12 -9 20 3 7 -2 17 -11 20 -9 3 -13 10 -10 15 3 5 1 9 -4 9 -6 0 -8
9 -5 20 3 11 10 20 15 20 5 0 6 5 3 11 -4 6 -1 10 6 8 28 -3 40 1 33 13 -4 7
-3 8 4 4 7 -4 12 -13 12 -20 0 -7 7 -21 15 -32 13 -17 14 -16 5 13 -4 18 -12
38 -16 44 -5 9 -2 10 10 6 11 -5 15 -3 10 5 -5 8 -2 9 10 5 9 -4 15 -3 12 2
-3 5 5 9 19 9 14 0 22 -4 19 -9 -3 -5 0 -9 6 -9 7 0 10 6 8 13 -8 22 -52 17
-113 -14z"/>
<path d="M845 1909 c-17 -4 -44 -23 -60 -41 -24 -26 -25 -29 -5 -13 13 11 30
26 38 33 14 13 44 16 55 6 10 -10 -12 -55 -36 -74 -20 -17 -81 -36 -99 -32 -5
1 -8 -3 -8 -9 0 -15 57 -2 98 23 18 11 41 38 52 61 30 61 28 65 -35 46z"/>
<path d="M2815 1896 c9 -13 12 -26 8 -29 -3 -4 5 -7 18 -8 21 0 20 -2 -11 -17
-19 -9 -38 -21 -41 -26 -4 -5 -12 -5 -19 -1 -9 5 -11 4 -6 -3 10 -16 -7 -15
-23 1 -11 10 -13 9 -8 -5 7 -21 -12 -24 -32 -5 -11 10 -13 9 -7 -6 3 -10 6
-21 6 -23 0 -27 162 64 166 93 4 23 -10 37 -43 45 -21 6 -21 5 -8 -16z"/>
<path d="M2130 1870 c-20 -39 -17 -47 15 -40 14 2 105 -42 105 -52 0 -16 40
-48 60 -48 18 0 50 44 50 69 0 14 -52 39 -68 34 -19 -7 -122 37 -122 53 0 30
-21 22 -40 -16z m89 -29 c41 -21 61 -27 74 -20 12 7 22 4 36 -10 20 -20 19
-51 -1 -51 -5 0 -7 -4 -4 -9 4 -5 -6 -8 -20 -6 -28 3 -45 21 -38 39 2 6 -19
20 -47 31 -31 12 -54 27 -57 39 -5 17 -6 16 -18 -5 -17 -31 -18 -9 -2 27 10
21 14 24 16 11 2 -10 29 -30 61 -46z"/>
<path d="M820 1855 c-22 -22 -40 -33 -51 -30 -10 3 -19 -1 -23 -10 -4 -11 -2
-14 7 -8 6 4 17 8 23 8 13 0 88 65 82 70 -2 3 -20 -11 -38 -30z"/>
<path d="M565 1654 l-38 -46 27 -26 c14 -15 26 -23 26 -20 0 4 -10 16 -21 27
l-22 20 35 39 c33 37 36 38 55 22 11 -8 22 -22 26 -30 4 -12 6 -12 6 2 1 9
-12 26 -27 37 l-29 20 -38 -45z"/>
<path d="M2797 1650 c-26 -16 -66 -47 -89 -68 -55 -49 -72 -55 -109 -37 -68
36 -75 36 -105 2 -16 -17 -22 -26 -13 -19 13 10 24 9 54 -3 20 -9 34 -11 30
-6 -3 6 -12 11 -18 11 -21 0 -40 17 -33 29 8 13 65 -8 108 -39 18 -13 26 -15
22 -6 -3 7 3 16 13 20 10 3 45 29 78 57 33 28 78 60 100 70 22 10 33 19 24 19
-8 0 -36 -13 -62 -30z"/>
<path d="M2883 1659 c8 -26 -7 -39 -89 -75 -43 -18 -91 -47 -106 -64 l-28 -30
20 -32 c25 -41 25 -48 1 -48 -11 0 -22 8 -25 18 -4 10 -23 34 -44 53 l-37 34
31 -35 c43 -48 57 -77 41 -84 -6 -3 2 -4 18 0 45 8 50 19 27 58 l-21 36 22 25
c12 14 58 41 102 60 86 37 111 60 94 85 -9 13 -10 13 -6 -1z"/>
<path d="M344 1649 c-10 -17 13 -36 27 -22 12 12 4 33 -11 33 -5 0 -12 -5 -16
-11z"/>
<path d="M675 1620 c-4 -6 -11 -7 -17 -4 -7 4 -8 2 -4 -5 6 -9 11 -9 22 0 12
10 18 9 29 -2 12 -12 9 -20 -23 -55 l-38 -41 20 -31 c21 -30 84 -88 90 -81 1
2 22 26 47 53 l44 48 -35 29 c-19 16 -39 29 -44 29 -6 0 6 -11 27 -25 20 -14
37 -29 37 -33 0 -4 -19 -27 -43 -50 l-42 -41 -38 35 c-39 38 -46 54 -22 54 18
0 20 26 3 33 -9 4 -3 14 16 32 27 25 28 27 11 45 -20 22 -31 25 -40 10z"/>
<path d="M212 1525 c1 -11 -1 -25 -4 -31 -4 -6 -10 -31 -13 -55 -6 -43 -5 -43
11 -21 25 34 45 29 34 -9 -10 -33 5 -37 24 -6 8 13 6 21 -7 34 -15 15 -20 16
-39 4 -18 -11 -20 -11 -14 4 3 9 6 24 6 32 0 9 3 13 7 10 3 -4 11 -3 18 3 8 6
38 -18 100 -80 l89 -89 -24 -28 -25 -28 26 23 c23 20 39 21 39 0 0 -4 -19 -21
-42 -38 -22 -16 -36 -30 -31 -30 6 0 29 17 51 38 l42 37 -126 125 c-79 79
-124 118 -122 105z"/>
<path d="M2422 1465 c-23 -26 -50 -61 -60 -79 -19 -32 -19 -33 1 -45 16 -11
22 -10 35 3 14 14 14 17 -2 35 -17 19 -17 21 15 60 28 36 33 39 44 24 17 -23
47 -9 43 19 -5 38 -33 32 -76 -17z"/>
<path d="M2545 1480 c-4 -6 1 -7 12 -4 17 5 17 5 -1 -10 -10 -8 -15 -19 -11
-25 8 -13 32 -14 39 -2 4 5 -4 7 -16 3 -21 -5 -22 -4 -9 12 8 9 21 14 29 11
12 -4 13 -3 2 10 -14 17 -36 20 -45 5z"/>
<path d="M2557 1408 c2 -5 -1 -8 -7 -8 -18 0 -2 -17 22 -23 22 -6 22 -5 4 8
-17 13 -17 15 -4 15 9 0 20 -4 23 -10 3 -5 14 -9 23 -9 15 1 15 2 0 6 -10 2
-18 10 -18 16 0 7 -11 12 -24 12 -13 0 -22 -3 -19 -7z"/>
<path d="M2446 1397 c-21 -16 -12 -43 17 -51 12 -3 23 -3 26 -1 2 3 -2 5 -9 5
-9 0 -8 5 5 14 11 8 16 19 12 30 -8 19 -27 21 -51 3z m37 -11 c3 -8 -1 -17
-10 -20 -20 -8 -27 -1 -20 19 8 19 23 20 30 1z"/>
<path d="M293 1384 c-3 -8 0 -21 7 -27 10 -10 12 -7 7 11 -3 12 -1 22 4 22 9
0 13 -16 9 -35 -1 -5 4 -5 11 2 15 15 5 43 -16 43 -9 0 -18 -7 -22 -16z"/>
<path d="M2326 1324 c-9 -24 -3 -26 35 -16 31 7 32 9 12 14 -13 3 -23 2 -23
-3 0 -5 -4 -9 -10 -9 -5 0 -7 7 -4 15 4 8 4 15 1 15 -3 0 -8 -7 -11 -16z"/>
<path d="M275 1321 c6 -11 4 -13 -7 -9 -11 5 -15 0 -14 -15 1 -11 8 -22 16
-24 12 -4 12 -3 1 5 -15 11 2 27 19 17 17 -10 11 12 -7 26 -14 12 -16 12 -8 0z"/>
<path d="M335 1320 c-3 -5 2 -13 11 -17 16 -6 16 -7 -2 -15 -18 -8 -18 -8 1
-5 12 1 20 10 20 21 0 22 -20 33 -30 16z"/>
<path d="M357 1263 c-4 -3 -28 -12 -54 -19 -27 -7 -38 -13 -25 -13 24 -1 92
24 92 33 0 8 -5 7 -13 -1z"/>
<path d="M2646 1219 c-34 -40 -33 -74 3 -110 37 -37 78 -38 115 -4 55 51 19
145 -58 145 -26 0 -40 -7 -60 -31z m113 2 c29 -29 25 -86 -6 -111 -34 -27 -69
-25 -98 5 -30 30 -32 64 -4 99 25 32 79 36 108 7z"/>
<path d="M2663 1219 c-12 -12 -6 -49 9 -49 6 0 8 7 5 15 -4 8 -2 17 3 20 12 7
13 25 2 25 -4 0 -13 -5 -19 -11z"/>
<path d="M2641 1169 c-1 -24 15 -45 47 -63 6 -4 12 -3 12 1 0 5 -10 13 -22 18
-14 6 -26 22 -29 40 -6 28 -7 29 -8 4z"/>
<path d="M327 1214 c-3 -3 -39 -10 -79 -14 l-73 -9 71 3 c39 2 79 8 90 14 10
6 14 12 8 12 -6 0 -13 -3 -17 -6z"/>
<path d="M507 1077 l-38 -23 46 -57 c25 -32 51 -54 57 -51 7 4 6 9 -2 14 -9 6
-9 9 1 14 8 3 4 3 -8 0 -15 -3 -25 1 -33 16 -8 15 -8 20 1 20 9 0 9 3 0 14 -9
11 -8 15 5 20 23 9 27 8 21 -8 -3 -8 1 -20 9 -27 12 -10 18 -9 32 6 16 16 16
17 -4 7 -29 -15 -40 -1 -12 15 l23 12 -25 1 c-20 0 -22 2 -10 10 29 19 -5 10
-38 -10 -39 -24 -42 -24 -42 -5 0 8 17 23 38 34 20 11 33 20 27 21 -5 0 -27
-11 -48 -23z"/>
<path d="M700 1061 c0 -4 -11 -6 -24 -4 -28 6 -40 -9 -31 -38 5 -15 13 -20 30
-16 18 3 25 -1 28 -17 2 -12 5 3 6 32 0 28 -1 52 -4 52 -3 0 -5 -4 -5 -9z m-2
-29 c2 -7 -4 -15 -13 -18 -21 -8 -40 17 -22 28 15 10 30 5 35 -10z"/>
<path d="M171 985 c-29 -25 -58 -49 -65 -53 -15 -9 -39 -53 -32 -59 2 -3 18
-2 33 1 35 8 159 129 149 145 -12 19 -29 12 -85 -34z m79 27 c0 -16 -124 -123
-149 -129 -17 -4 -22 -2 -17 6 4 6 11 9 16 6 4 -3 7 2 6 9 0 8 26 37 59 65 57
47 85 61 85 43z"/>
<path d="M2882 1008 c-7 -7 -12 -17 -13 -22 0 -6 -27 -30 -60 -53 -32 -24 -59
-47 -59 -52 0 -24 34 -16 83 20 31 21 59 39 64 39 16 0 33 52 22 67 -14 16
-22 16 -37 1z m27 -35 c-6 -11 -30 -32 -53 -47 -22 -14 -51 -33 -63 -42 -13
-9 -23 -11 -27 -5 -4 5 21 29 54 52 33 23 60 48 60 55 0 15 22 24 33 14 5 -4
3 -16 -4 -27z"/>
<path d="M611 956 c-9 -10 -8 -16 4 -26 19 -16 41 1 32 24 -8 20 -21 20 -36 2z"/>
<path d="M690 941 c0 -10 -9 -21 -20 -24 -11 -3 -20 -12 -20 -20 0 -15 30 -46
30 -31 0 5 5 2 10 -6 7 -11 10 2 10 43 0 31 -2 57 -5 57 -3 0 -5 -8 -5 -19z"/>
<path d="M608 882 c24 -29 49 -55 55 -59 7 -4 -8 16 -31 45 -24 29 -49 55 -55
59 -7 4 8 -16 31 -45z"/>
<path d="M2660 733 c0 -28 3 -34 10 -23 5 8 10 24 11 35 1 11 5 2 9 -20 l7
-40 2 43 c1 36 -2 42 -19 42 -16 0 -20 -7 -20 -37z"/>
<path d="M2592 717 c-2 -34 2 -49 13 -53 8 -4 15 -18 15 -33 0 -70 12 -96 60
-134 27 -20 51 -33 54 -28 3 5 -16 26 -44 47 -45 34 -49 41 -56 91 -3 29 -12
57 -19 61 -8 4 -15 27 -18 52 l-4 45 -1 -48z"/>
<path d="M244 697 c-51 -30 -124 -107 -124 -131 0 -14 49 -40 58 -31 3 3 0 5
-6 5 -7 0 -12 4 -12 10 0 5 8 7 18 4 14 -5 14 -4 2 4 -12 10 -12 13 0 29 8 11
3 6 -11 -10 -28 -30 -48 -23 -30 10 14 27 82 89 116 106 17 9 26 16 20 16 -5
0 -19 -5 -31 -12z"/>
<path d="M305 685 l-30 -14 31 6 c29 5 32 3 32 -21 0 -20 -5 -26 -17 -23 -9 2
-15 9 -13 16 1 7 -2 10 -8 6 -5 -3 -10 -16 -9 -28 0 -12 3 -17 5 -10 3 7 12 9
20 6 13 -5 13 -7 2 -14 -10 -7 -10 -9 0 -9 7 0 15 7 18 15 10 25 22 17 34 -21
7 -19 14 -33 16 -31 8 7 -27 87 -38 87 -5 0 -6 4 -3 10 3 5 2 16 -2 24 -7 12
-13 12 -38 1z"/>
<path d="M2494 684 c3 -8 2 -13 -3 -10 -5 3 -15 -1 -22 -10 -12 -14 -9 -20 16
-40 17 -13 39 -23 50 -23 17 1 16 2 -4 8 -37 10 -49 36 -28 59 16 18 14 32 -6
32 -5 0 -6 -7 -3 -16z"/>
<path d="M2551 646 c11 -20 17 -41 13 -48 -4 -7 -4 -10 1 -6 19 17 44 -40 49
-113 3 -51 2 -62 -3 -34 l-8 40 -2 -43 c-1 -31 3 -42 12 -39 8 3 11 28 9 88
-2 67 -7 87 -21 99 -11 8 -26 29 -35 47 -9 17 -20 35 -26 38 -5 3 -1 -10 11
-29z"/>
<path d="M215 599 c-5 -8 0 -9 16 -5 13 3 18 3 11 0 -6 -3 -10 -10 -7 -15 4
-5 -2 -6 -12 -2 -14 5 -16 3 -6 -7 16 -17 45 -5 41 17 -4 21 -33 29 -43 12z"/>
<path d="M282 558 c-7 -7 -12 -21 -11 -32 0 -17 2 -16 11 7 10 29 22 34 34 16
3 -6 0 -15 -7 -20 -8 -5 -9 -9 -4 -9 6 0 3 -5 -5 -10 -8 -5 -10 -10 -4 -10 21
0 39 30 28 48 -14 21 -27 25 -42 10z"/>
<path d="M363 535 c-3 -9 -3 -18 0 -22 10 -10 37 6 37 22 0 20 -29 20 -37 0z"/>
<path d="M203 532 c-8 -5 10 -19 52 -40 78 -38 102 -42 30 -5 -27 14 -54 32
-60 39 -6 8 -15 10 -22 6z"/>
<path d="M398 491 c-10 -10 -18 -23 -18 -29 0 -5 -3 -12 -7 -15 -5 -2 -2 -2 5
-1 6 2 12 0 12 -5 0 -4 11 -6 25 -3 14 2 25 8 25 12 0 4 -11 5 -25 2 -19 -3
-25 0 -25 13 0 11 5 15 15 11 10 -4 15 1 15 14 0 24 0 24 -22 1z"/>
<path d="M2848 343 c0 -5 -1 -15 -2 -23 -1 -8 -17 -20 -36 -27 -24 -8 -28 -12
-14 -12 12 -1 33 8 47 19 18 14 28 17 33 9 4 -6 -1 -16 -10 -21 -9 -5 -24 -27
-33 -50 -11 -28 -18 -36 -24 -26 -12 18 -11 30 1 23 6 -3 10 -2 10 3 0 5 -20
13 -45 19 -54 12 -71 -1 -81 -65 -6 -40 -5 -42 17 -41 19 1 20 2 5 6 -14 4
-17 11 -12 35 3 17 6 34 6 39 0 5 5 9 11 9 5 0 7 -5 3 -12 -4 -7 -3 -8 4 -4 6
4 8 14 5 24 -5 13 -3 14 7 5 7 -6 20 -9 29 -5 14 5 15 4 1 -14 -14 -18 -14
-18 3 -5 23 18 22 -1 -1 -22 -24 -22 -36 -22 -27 1 5 14 4 15 -6 5 -10 -10
-10 -16 -1 -25 9 -9 17 -6 37 12 14 13 25 19 25 13 0 -12 -29 -38 -50 -46 -9
-3 -5 -6 11 -6 32 -1 59 24 83 77 12 26 26 42 40 44 24 4 33 33 16 53 -13 16
-49 21 -52 8z"/>
<path d="M178 243 c3 -15 16 -36 30 -47 l25 -20 -23 -8 c-26 -10 -52 6 -43 28
3 8 -1 14 -8 14 -11 0 -11 3 1 10 12 8 9 10 -12 10 -16 0 -28 -4 -28 -10 0 -5
5 -10 10 -10 6 0 15 -11 22 -24 6 -14 16 -27 22 -29 20 -8 67 5 63 17 -3 6 1
18 9 26 15 17 3 37 -34 58 -33 18 -40 15 -34 -15z m62 -27 c0 -23 -13 -26 -32
-9 -10 9 -18 25 -18 35 0 17 1 18 25 2 14 -9 25 -22 25 -28z"/>
</g>
</svg>
