<svg id="visual" viewBox="0 0 900 600" width="900" height="600" xmlns="http://www.w3.org/2000/svg" xmlns:xlink="http://www.w3.org/1999/xlink" version="1.1"><rect x="0" y="0" width="900" height="600" fill="#fff"></rect><path d="M0 141L225 191L450 162L675 121L900 176L900 0L675 0L450 0L225 0L0 0Z" fill="#f77f00"></path><path d="M0 136L225 131L450 104L675 92L900 116L900 0L675 0L450 0L225 0L0 0Z" fill="#e9571a"></path><path d="M0 40L225 83L450 56L675 78L900 29L900 0L675 0L450 0L225 0L0 0Z" fill="#d62828"></path></svg>