<?xml version="1.0" standalone="no"?>
<!DOCTYPE svg PUBLIC "-//W3C//DTD SVG 20010904//EN"
 "http://www.w3.org/TR/2001/REC-SVG-20010904/DTD/svg10.dtd">
<svg version="1.0" xmlns="http://www.w3.org/2000/svg"
 width="832.000000pt" height="1216.000000pt" viewBox="0 0 832.000000 1216.000000"
 preserveAspectRatio="xMidYMid meet">

<g transform="translate(0.000000,1216.000000) scale(0.100000,-0.100000)"
fill="#000000" stroke="none">
<path d="M3365 12079 c-652 -6 -898 -11 -1055 -24 -151 -13 -371 -18 -837 -22
l-632 -5 -12 -56 c-35 -173 -165 -315 -341 -377 -23 -8 -55 -15 -70 -15 -51 0
-55 -14 -62 -217 -4 -103 -2 -323 3 -488 16 -475 30 -1037 41 -1615 6 -294 19
-688 30 -875 25 -434 41 -1009 35 -1296 -3 -123 -7 -339 -10 -479 -3 -140 -13
-410 -21 -600 -19 -397 -15 -853 12 -1395 17 -366 15 -1001 -5 -1285 -29 -404
-42 -686 -51 -1100 -5 -250 -15 -552 -21 -670 -16 -293 -16 -955 0 -973 6 -8
35 -17 64 -20 75 -9 184 -67 252 -133 89 -88 121 -147 149 -276 l6 -26 877 -5
c745 -4 931 -7 1228 -26 394 -24 838 -28 1295 -12 417 15 544 15 1300 7 584
-7 730 -6 994 9 171 9 449 20 619 23 l309 7 19 72 c23 94 59 154 134 228 62
62 159 118 231 133 l39 8 -3 200 c-3 238 -19 548 -34 659 -14 110 -25 4425
-17 7130 5 1851 8 2140 22 2275 15 141 37 562 37 685 l0 50 -75 24 c-178 56
-313 208 -344 386 l-7 40 -89 2 c-50 2 -217 10 -372 18 -167 9 -470 15 -750
15 -257 1 -553 5 -658 11 -271 14 -1239 18 -2230 8z m1740 -20 c165 -5 629
-14 1030 -19 402 -5 784 -14 850 -19 66 -5 188 -11 270 -12 171 -2 195 -5 195
-27 0 -14 -33 -14 -302 -8 -167 3 -424 11 -573 17 -160 7 -883 13 -1770 14
-945 2 -1565 7 -1675 14 -96 6 -229 11 -295 12 l-120 2 80 8 c44 5 456 13 915
17 459 5 894 9 965 10 72 0 265 -3 430 -9z m-1975 -64 c374 -18 470 -19 1920
-16 969 3 1215 -1 2056 -30 l351 -12 18 -51 c41 -116 147 -233 259 -284 l59
-27 -6 -330 c-3 -181 -12 -431 -21 -555 -20 -296 -36 -888 -36 -1369 0 -419
10 -841 19 -841 3 0 6 339 7 753 1 701 13 1213 34 1487 5 63 15 280 21 481 13
364 13 367 33 359 20 -7 21 -14 18 -131 -6 -233 -22 -534 -37 -674 -15 -140
-15 -162 -27 -4315 -3 -1145 13 -4896 22 -4945 16 -98 30 -322 37 -622 6 -279
6 -283 -14 -283 -19 0 -20 9 -26 303 -4 166 -11 376 -16 467 -12 203 -21 396
-21 473 0 31 -4 57 -10 57 -14 0 -12 -199 5 -505 8 -143 15 -382 15 -532 l0
-272 -72 -38 c-116 -60 -199 -157 -252 -296 l-15 -37 -133 0 c-73 0 -311 -7
-528 -17 -349 -15 -455 -15 -910 -5 -720 17 -1400 16 -1400 -1 0 -11 57 -13
323 -9 178 3 519 -1 758 -7 550 -16 1003 -16 1284 -2 121 6 306 12 410 13 163
3 190 1 190 -12 0 -13 -53 -16 -390 -21 -214 -4 -475 -12 -580 -18 -312 -18
-593 -19 -1100 -4 -434 13 -530 13 -1009 -3 -752 -24 -1195 -15 -1986 41 -383
27 -607 35 -1072 35 l-456 0 -12 38 c-47 144 -179 283 -312 328 l-48 16 0 998
c0 655 -3 1001 -10 1005 -13 8 -13 73 -14 -1020 l-1 -970 -30 3 c-16 2 -32 6
-35 9 -10 10 -5 744 8 1103 7 201 17 525 22 720 6 195 15 420 20 498 38 551
43 693 44 1052 0 231 -8 541 -19 775 -23 494 -23 841 0 1370 26 582 27 1639 2
2075 -33 567 -36 661 -47 1274 -5 336 -17 800 -26 1031 -9 237 -14 554 -12
728 3 330 3 326 54 327 l21 0 1 -1057 c1 -722 5 -1059 12 -1061 7 -3 10 329
10 1062 0 846 3 1066 13 1066 27 1 140 68 197 119 62 55 128 153 150 224 l12
37 171 0 c206 0 472 13 817 40 140 11 278 22 305 24 102 8 660 -3 985 -19z
m-1725 -5 c-73 -10 -509 -20 -536 -13 -61 16 27 23 294 22 192 -1 280 -4 242
-9z m305 -11817 c369 -11 207 -21 -352 -22 -436 -1 -498 1 -498 14 0 13 41 15
308 15 169 0 413 -3 542 -7z"/>
<path d="M2371 11568 c-24 -11 -80 -26 -125 -33 -185 -30 -283 -71 -358 -147
-43 -44 -49 -47 -68 -36 -19 12 -24 9 -55 -27 -57 -66 -107 -177 -113 -250
l-5 -64 -61 62 c-71 72 -156 131 -241 167 -59 24 -66 25 -298 25 -156 0 -236
-3 -233 -10 33 -73 57 -145 71 -215 25 -124 65 -202 150 -285 39 -38 74 -77
77 -86 10 -26 185 -79 261 -79 66 0 172 27 238 61 l36 18 28 -29 c22 -23 29
-42 33 -84 5 -67 -13 -146 -40 -175 -19 -21 -19 -51 1 -51 16 0 50 50 61 89 6
20 15 77 21 126 5 50 12 98 15 108 10 32 39 38 128 27 151 -21 236 9 354 124
97 94 116 120 103 145 -8 15 -6 25 10 46 12 14 31 50 42 78 19 46 22 75 24
257 2 113 4 216 5 229 4 32 -8 33 -61 9z m23 -191 c8 -181 -5 -266 -56 -355
-18 -31 -31 -66 -30 -78 6 -42 -139 -185 -217 -215 -53 -20 -123 -24 -228 -13
-60 7 -61 7 -53 33 12 44 76 163 118 221 l39 54 106 1 c75 0 110 4 119 14 11
11 0 12 -67 6 -44 -3 -90 -3 -103 2 l-23 9 22 29 c64 84 121 143 133 139 21
-8 92 14 107 33 13 15 11 16 -11 9 -59 -16 -80 -18 -80 -7 0 6 20 41 45 78 25
36 42 69 39 72 -3 3 -13 -4 -23 -17 -107 -146 -241 -303 -252 -296 -12 7 -11
111 2 157 14 52 3 59 -17 11 -12 -29 -15 -60 -12 -124 l5 -85 -44 -53 c-24
-30 -64 -97 -91 -150 -26 -54 -51 -100 -55 -103 -5 -3 -8 -9 -7 -13 1 -4 0
-12 -2 -18 -3 -7 -12 15 -21 48 -8 32 -25 93 -37 134 -37 130 -14 259 67 367
33 45 47 56 51 43 7 -19 25 -9 83 44 85 79 159 112 318 141 73 13 136 27 139
30 23 23 30 -4 36 -148z m-1145 -147 c146 -24 310 -144 382 -280 21 -39 24
-58 22 -133 -1 -49 -4 -91 -7 -94 -3 -3 -23 9 -45 28 -21 19 -51 44 -65 56
-22 18 -26 30 -26 73 0 49 -24 129 -36 117 -3 -3 0 -29 6 -59 7 -29 10 -63 9
-75 -4 -22 -8 -20 -94 32 -79 49 -90 59 -87 81 4 38 -25 128 -48 149 -30 28
-32 14 -5 -40 25 -49 34 -115 15 -115 -21 0 -132 62 -200 112 -39 28 -73 48
-76 46 -10 -10 41 -57 111 -102 122 -79 121 -75 37 -76 -40 0 -71 -4 -68 -9
10 -16 70 -20 127 -9 56 11 57 11 123 -27 36 -22 66 -42 66 -46 0 -9 -49 -25
-102 -35 -21 -3 -36 -10 -33 -14 7 -12 84 -1 127 17 l37 16 63 -42 c35 -23 80
-57 101 -75 44 -40 45 -39 -58 -73 -86 -29 -145 -36 -214 -23 -74 13 -151 46
-151 65 0 7 -20 25 -44 39 -98 57 -174 181 -205 336 -11 52 -24 108 -30 123
-14 35 -12 36 109 40 52 1 118 4 145 5 28 1 79 -3 114 -8z m454 -549 c-1 -2
-9 2 -18 9 -10 8 -13 22 -9 39 12 53 18 55 24 6 3 -27 4 -52 3 -54z"/>
<path d="M355 11907 c-34 -28 -44 -91 -22 -134 20 -38 79 -67 121 -60 64 11
84 24 97 66 15 49 1 89 -43 126 -40 34 -115 35 -153 2z m89 -21 c36 -15 76
-59 76 -84 0 -25 -41 -62 -68 -62 -76 0 -130 92 -82 140 24 24 30 24 74 6z"/>
<path d="M7788 11910 c-36 -27 -61 -85 -53 -119 22 -103 188 -106 224 -4 17
47 9 86 -24 119 -32 32 -110 34 -147 4z m137 -43 c22 -33 3 -92 -35 -112 -43
-22 -86 -19 -104 7 -24 34 -19 57 18 94 43 43 97 48 121 11z"/>
<path d="M593 11762 c-30 -60 -30 -78 0 -47 18 18 40 80 35 97 -3 7 -18 -16
-35 -50z"/>
<path d="M7670 11805 c0 -26 31 -93 46 -99 20 -8 17 8 -11 64 -26 52 -35 61
-35 35z"/>
<path d="M570 447 c0 -3 12 -31 27 -63 25 -53 28 -56 31 -31 4 29 -25 88 -46
95 -6 2 -12 2 -12 -1z"/>
<path d="M7695 426 c-21 -31 -32 -96 -16 -96 6 0 11 8 11 18 0 9 9 34 20 55
23 42 24 47 10 47 -5 0 -17 -11 -25 -24z"/>
<path d="M383 430 c-57 -23 -81 -124 -43 -173 60 -77 193 -37 215 63 19 85
-79 147 -172 110z m97 -25 c52 -27 51 -75 -1 -120 -33 -27 -89 -34 -107 -12
-37 44 -17 107 41 132 40 18 33 18 67 0z"/>
<path d="M7781 426 c-26 -15 -50 -51 -51 -79 0 -32 39 -96 70 -112 33 -17 93
-20 121 -5 24 13 49 61 49 95 0 38 -26 83 -60 100 -35 18 -97 19 -129 1z m115
-31 c34 -23 48 -68 32 -102 -10 -22 -21 -29 -49 -31 -30 -3 -43 3 -73 31 -39
38 -46 70 -19 99 20 22 80 24 109 3z"/>
</g>
</svg>
